# xmcd
#
# Track frame offsets: 
#        150
#        11826
#        31196
#        52102
#        71617
#        90082
#        110459
#        122843
#        138048
#        153678
#        174398
#
# Disc length: 2578 seconds
#
# Revision: 0
# Processed by: cddbd v1.5.2PL0 Copyright (c) Steve Scherf et al.
# Submitted via: ExactAudioCopyFreeDBPlugin 1.0
#
DISCID=890a100b
DTITLE=F.J. Nanic - Faco - Window in my roof
DYEAR=2000
DGENRE=Ballad
TTITLE0=Strange Paradise
TTITLE1=Take Your Pillow
TTITLE2=Howling at the Moon
TTITLE3=Least Expected
TTITLE4=Something
TTITLE5=Smile
TTITLE6=With a Song in Your Heart
TTITLE7=Deep Water
TTITLE8=Window In My Roof
TTITLE9=Time Doesn't Heal
TTITLE10=In One With
EXTD=
EXTT0=
EXTT1=
EXTT2=
EXTT3=
EXTT4=
EXTT5=
EXTT6=
EXTT7=
EXTT8=
EXTT9=
EXTT10=
PLAYORDER=
